<?xml version="1.0" encoding="UTF-8" standalone="no"?>
<!-- Created with Inkscape (http://www.inkscape.org/) -->

<svg
   width="210mm"
   height="297mm"
   viewBox="0 0 210 297"
   version="1.1"
   id="svg416"
   inkscape:version="1.1.2 (0a00cf5339, 2022-02-04)"
   sodipodi:docname="module_image.svg"
   xmlns:inkscape="http://www.inkscape.org/namespaces/inkscape"
   xmlns:sodipodi="http://sodipodi.sourceforge.net/DTD/sodipodi-0.dtd"
   xmlns="http://www.w3.org/2000/svg"
   xmlns:svg="http://www.w3.org/2000/svg">
  <sodipodi:namedview
     id="namedview418"
     pagecolor="#ffffff"
     bordercolor="#666666"
     borderopacity="1.0"
     inkscape:pageshadow="2"
     inkscape:pageopacity="0.0"
     inkscape:pagecheckerboard="0"
     inkscape:document-units="mm"
     showgrid="false"
     inkscape:zoom="0.47393378"
     inkscape:cx="396.67989"
     inkscape:cy="562.31484"
     inkscape:window-width="1316"
     inkscape:window-height="704"
     inkscape:window-x="50"
     inkscape:window-y="27"
     inkscape:window-maximized="1"
     inkscape:current-layer="layer1" />
  <defs
     id="defs413" />
  <g
     inkscape:label="Layer 1"
     inkscape:groupmode="layer"
     id="layer1">
    <path
       d="m 95.465022,105.51316 c 0,20.96664 -16.996482,37.96313 -37.963125,37.96313 -20.96629,0 -37.96316,-16.99649 -37.96316,-37.96313 0,-20.966642 16.99687,-37.963124 37.96316,-37.963124 20.966643,0 37.963125,16.996482 37.963125,37.963124"
       style="fill:#a6d620;fill-opacity:1;fill-rule:nonzero;stroke:none;stroke-width:0.0352778"
       id="path76"
       inkscape:export-filename="/home/marc/Downloads/vecteezy_here-is-a-very-useful-set-of-trendy-long-shadow-arrow-icons-that-i-really-hope-you-enjoy-using_86706/path84.png"
       inkscape:export-xdpi="42.82"
       inkscape:export-ydpi="42.82" />
    <path
       d="m 57.501897,143.47629 v 0 c -0.256116,0 -0.511527,-0.005 -0.766586,-0.01 l -0.500239,-0.50024 -1.214261,-1.21426 -1.213908,-1.21426 -0.654756,-0.6544 -0.654403,-0.65441 -0.654403,-0.6544 -0.189441,-0.18944 -0.654403,-0.6544 -0.654403,-0.65441 -1.214261,-1.21426 -1.214261,-1.21426 -0.654403,-0.65475 -0.654403,-0.65441 -0.654755,-0.6544 -0.189089,-0.18944 -0.654403,-0.6544 -0.654756,-0.65441 -0.886883,-0.88688 -0.886884,-0.88724 -0.654755,-0.6544 -0.654403,-0.6544 -0.654403,-0.65441 -0.654403,-0.6544 -3.272366,-3.27237 -0.654403,-0.6544 -0.654438,-0.65475 -0.654439,-0.65441 16.046169,-16.04468 -0.339019,-0.33902 -0.654403,-0.65441 -0.654756,-0.6544 -0.654402,-0.65475 -0.654403,-0.65441 v 0 l -0.654403,-0.6544 v 0 l -0.654403,-0.6544 v 0 l -0.654755,-0.65441 h 3.52e-4 l -0.654755,-0.654398 v -3.53e-4 l -0.654403,-0.654403 v 0 L 43.989802,98.630113 43.335399,97.97571 42.680996,97.321308 v 0 l -0.654755,-0.654403 h 3.53e-4 l -0.654756,-0.654403 v -3.53e-4 l -0.654403,-0.654403 v 0 l -0.654403,-0.654402 v 0 L 39.40863,94.048941 v 0 l -0.654403,-0.654403 v 0 l -0.654756,-0.654403 h 3.53e-4 l -0.654756,-0.654403 v -3.53e-4 l -0.654402,-0.654402 v 0 l -0.654403,-0.654403 -0.654438,-0.654403 -0.654439,-0.654403 6.355363,-6.355292 0.654403,0.654403 0.654403,0.654403 0.654403,0.654403 0.654402,0.654755 0.654403,0.654403 1.963561,1.963208 0.654403,0.654403 0.654403,0.654756 0.654403,0.654403 0.654756,0.654403 0.654402,0.654402 0.654403,0.654403 1.963209,1.963561 0.654755,0.654403 0.654403,0.654403 0.654403,0.654403 0.654403,0.654755 0.654402,0.654403 0.654403,0.654403 1.963562,1.963208 0.654402,0.65476 0.654403,0.6544 0.654403,0.6544 0.654756,0.6544 0.654402,0.65441 0.654403,0.6544 1.458031,1.45838 0.50553,0.50518 0.148873,0.14923 0.50553,0.50517 0.148873,0.14923 0.50553,0.50518 0.149225,0.14922 0.505178,0.50518 0.149225,0.14922 0.505178,0.50554 0.149225,0.14887 0.505178,0.50553 0.280811,0.28046 4.058003,-4.05765 -0.33902,-0.33902 -0.654403,-0.65441 -0.654402,-0.6544 -0.654403,-0.65475 v 0 l -0.654403,-0.65441 v 0 l -0.654756,-0.6544 h 3.53e-4 l -0.654755,-0.6544 v 0 l -0.654403,-0.65441 v 0 l -0.654403,-0.654398 v -3.53e-4 L 65.470795,99.284516 64.816392,98.630113 64.161637,97.97571 63.507234,97.321308 v 0 l -0.654403,-0.654403 -0.654403,-0.654403 v -3.53e-4 l -0.654403,-0.654403 -0.654402,-0.654402 v 0 l -0.654756,-0.654403 -0.654403,-0.654403 v 0 l -0.654403,-0.654403 -0.654402,-0.654403 v -3.53e-4 l -0.654403,-0.654402 v 0 l -0.654403,-0.654403 -0.654756,-0.654403 -0.654403,-0.654403 6.355293,-6.355292 0.654402,0.654403 0.654403,0.654403 0.654756,0.654403 0.654403,0.654755 0.654402,0.654403 5.889979,5.889978 5.89033,5.890331 5.63739,5.637388 0.252941,0.25259 2.692401,2.6924 2.6924,2.6924 0.252589,0.25294 0.252589,0.25259 2.6924,2.6924 2.656064,2.65607 c -4.179712,15.71907 -18.189576,27.43094 -35.047769,28.14778 -0.0014,0 -3.53e-4,0 -0.0014,0 -0.03422,0.001 -0.06632,0.003 -0.100189,0.004 -0.0014,0 -3.53e-4,0 -0.0018,0 -0.01693,7e-4 -0.03281,0.001 -0.05009,0.002 h -7.06e-4 c -0.03387,0.001 -0.06738,0.003 -0.101247,0.004 h -3.53e-4 c -0.01729,7.1e-4 -0.03316,0.001 -0.05009,0.002 h -0.0021 c -0.03422,0.001 -0.06562,0.002 -0.09984,0.004 h -0.0018 c -0.01623,3.6e-4 -0.03281,0.001 -0.04868,0.001 -0.0011,0 -0.0028,0 -0.0042,0 -0.03316,0.001 -0.06632,0.002 -0.09913,0.003 h -0.0011 c -0.01623,3.5e-4 -0.0321,7e-4 -0.04833,10e-4 -0.0011,0 -0.0046,0 -0.0056,0 -0.0321,7.1e-4 -0.06562,0.002 -0.09772,0.002 -0.0014,0 -0.0011,0 -0.0025,0 -0.01587,3.5e-4 -0.03104,7e-4 -0.04692,0.001 -0.0025,0 -0.0046,0 -0.0071,3.5e-4 -0.01482,3.5e-4 -0.03104,7.1e-4 -0.04586,0.001 -0.0014,0 -0.0046,0 -0.006,0 -0.01482,3.5e-4 -0.02893,7e-4 -0.0441,7e-4 -0.0011,0 -0.0032,3.6e-4 -0.0042,3.6e-4 -0.01623,3.5e-4 -0.03034,3.5e-4 -0.04657,7e-4 -0.0025,0 -0.0046,0 -0.0071,3.6e-4 -0.01517,0 -0.03069,3.5e-4 -0.04586,7e-4 -0.0025,0 -0.0039,0 -0.0064,0 -0.01517,3.5e-4 -0.02787,7.1e-4 -0.04269,7.1e-4 -0.0014,0 -0.0042,0 -0.0056,0 -0.01482,3.5e-4 -0.02999,7e-4 -0.0448,7e-4 -0.0039,3.5e-4 -0.0056,3.5e-4 -0.0092,3.5e-4 -0.01517,0 -0.03034,3.6e-4 -0.04516,7.1e-4 -0.0028,0 -0.0032,0 -0.0056,0 -0.01588,0 -0.03104,3.5e-4 -0.04692,3.5e-4 l -0.0011,3.6e-4 c -0.01517,0 -0.0314,3.5e-4 -0.04621,3.5e-4 -0.0039,0 -0.0053,0 -0.0092,0 -0.01482,3.5e-4 -0.02999,3.5e-4 -0.04516,7e-4 -0.0014,0 -0.0046,0 -0.0056,0 -0.0321,3.6e-4 -0.06385,3.6e-4 -0.09596,7.1e-4 -0.0028,0 -0.0032,0 -0.0056,0 -0.01482,0 -0.0314,3.5e-4 -0.04657,3.5e-4 -0.0014,0 -0.0053,0 -0.0067,0 -0.03104,0 -0.06279,3.6e-4 -0.09384,3.6e-4 -0.0025,0 -0.006,0 -0.0085,0 -0.01517,0 -0.02999,0 -0.04516,0 -0.0025,0 -0.0046,0 -0.0074,0 -0.01588,0 -0.03069,0 -0.04692,0 v 0"
       style="fill:#6cc42e;fill-opacity:1;fill-rule:nonzero;stroke:none;stroke-width:0.0352778"
       id="path80"
       inkscape:export-filename="/home/marc/Downloads/vecteezy_here-is-a-very-useful-set-of-trendy-long-shadow-arrow-icons-that-i-really-hope-you-enjoy-using_86706/path84.png"
       inkscape:export-xdpi="42.82"
       inkscape:export-ydpi="42.82" />
    <path
       d="m 83.704468,105.51316 -22.401037,-22.400684 -6.355292,6.355292 16.046804,16.045392 -16.046804,16.04539 6.355292,6.3553 22.401037,-22.40069"
       style="fill:#ffffff;fill-opacity:1;fill-rule:nonzero;stroke:none;stroke-width:0.0352778"
       id="path82"
       inkscape:export-filename="/home/marc/Downloads/vecteezy_here-is-a-very-useful-set-of-trendy-long-shadow-arrow-icons-that-i-really-hope-you-enjoy-using_86706/path84.png"
       inkscape:export-xdpi="42.82"
       inkscape:export-ydpi="42.82" />
    <path
       d="m 34.121831,89.467768 16.046521,16.045392 -16.046521,16.04539 6.355363,6.3553 22.400684,-22.40069 -22.400684,-22.400684 -6.355363,6.355292"
       style="fill:#ffffff;fill-opacity:1;fill-rule:nonzero;stroke:none;stroke-width:0.0352778"
       id="path84"
       inkscape:export-filename="/home/marc/Downloads/vecteezy_here-is-a-very-useful-set-of-trendy-long-shadow-arrow-icons-that-i-really-hope-you-enjoy-using_86706/path84.png"
       inkscape:export-xdpi="42.82"
       inkscape:export-ydpi="42.82" />
  </g>
</svg>
